<svg width="17" height="27" viewBox="0 0 17 27" fill="none" xmlns="http://www.w3.org/2000/svg">
<path d="M1.03629 10.5C1.03629 10.5 0.0361791 21 8.53616 21M8.53616 21C17.0361 21 15.5363 10.5 15.5363 10.5M8.53616 21L8.53626 26M8.53617 1C12.0362 0.999939 12.5363 4.5 12.5363 4.5C12.5363 4.5 12.5363 14.0001 12.5363 14.5001C12.5363 15 11.5361 17.5 8.53617 17.5C5.53629 17.5 4.53615 15.0001 4.53617 14.5001C4.5362 14 4.53624 5 4.53617 4.50006C4.5361 4.00012 5.03617 1.00006 8.53617 1Z" stroke="#8F8F8F" stroke-width="2"/>
<path d="M4.03625 26H13.0363" stroke="#8F8F8F" stroke-width="2"/>
</svg>
